<svg xmlns="http://www.w3.org/2000/svg" fill="#ffffff"  viewBox="0 0 72 72" width="80" height="80"><path d="M 29.5 14 C 15.125 14 14 15.125 14 29.5 L 14 42.5 C 14 56.875 15.125 58 29.5 58 L 42.5 58 C 56.875 58 58 56.875 58 42.5 L 58 29.5 C 58 15.125 56.875 14 42.5 14 L 29.5 14 z M 26 22 L 46 22 C 49.71 22 50 22.29 50 26 L 50 46 C 50 49.71 49.71 50 46 50 L 26 50 C 22.29 50 22 49.71 22 46 L 22 26 C 22 22.29 22.29 22 26 22 z M 28.121094 24.550781 C 26.781094 24.550781 25.695312 25.636609 25.695312 26.974609 C 25.695312 28.312609 26.779094 29.400391 28.121094 29.400391 C 29.459094 29.400391 30.546875 28.313609 30.546875 26.974609 C 30.546875 25.637609 29.458094 24.550781 28.121094 24.550781 z M 40.820312 30.982422 C 38.796312 30.982422 37.438812 32.092531 36.882812 33.144531 L 36.826172 33.144531 L 36.826172 31.316406 L 32.835938 31.316406 L 32.835938 44.705078 L 36.992188 44.705078 L 36.992188 38.080078 C 36.992187 36.334078 37.325234 34.644531 39.490234 34.644531 C 41.624234 34.644531 41.652344 36.640359 41.652344 38.193359 L 41.652344 44.705078 L 45.810547 44.705078 L 45.8125 44.705078 L 45.8125 37.361328 C 45.8125 33.756328 45.033313 30.982422 40.820312 30.982422 z M 26.039062 31.316406 L 26.039062 44.705078 L 30.201172 44.705078 L 30.201172 31.316406 L 26.039062 31.316406 z"/></svg>